<?xml version="1.0" encoding="UTF-8"?>
<svg id="Capa_2" data-name="Capa 2" xmlns="http://www.w3.org/2000/svg" viewBox="0 0 590.07 210.63">
  <defs>
    <style>
      .cls-1 {
        fill: #fff;
      }
    </style>
  </defs>
  <g id="Capa_1-2" data-name="Capa 1">
    <g>
      <path class="cls-1" d="m494.66,142.82c1.77-.66,2.86-1.77,3.97-2.77,6.84-6.14,12.86-12.97,17.47-20.98,1.28-2.23,2.79-4.33,4.28-6.43,1.36-1.92,2.16-4.11,3.19-6.19,2.82-5.74,5.85-11.39,7.86-17.48,1.19-3.6,2.06-7.26,1.84-11.11-.17-2.89.76-5.66,1.25-8.47.35-2.01,2.3-2.56,3.94-1.3.92.7,1.53,1.62,1.92,2.71.36,1.02.71,2.04,1.13,3.03.35.83.84.85,1.33.08.43-.66.88-1.31,1.26-2,2.93-5.23,6.91-9.4,12.18-12.35,3.03-1.7,5.4-.26,6.32,2.61.38,1.19.39,2.45.43,3.7.07,1.95-.06,3.9.27,5.84.08.45.02.97.51,1.19.56.25.78-.3,1.12-.57,1.53-1.23,2.11-3.05,2.89-4.73,1.16-2.48,3.22-2.73,4.9-.56.68.87,1.11,1.84,1.37,2.91.4,1.65.8,3.31,1.29,4.94.57,1.91,1.63,2.36,3.42,1.47,2.82-1.4,5.13-3.52,7.49-5.55.65-.55,1.32-1.01,2.14-1.23.99-.27,1.51.15,1.62,1.14.07.64-.06,1.25-.37,1.8-1.73,3.06-3.79,5.85-6.53,8.11-1.94,1.6-4.17,2.15-6.61,2.12-1.97-.02-3.32-1.2-4.59-2.48-.67-.68-1.29-1.41-1.86-2.18-.43-.58-.86-.73-1.47-.33-.28.18-.57.35-.83.55-4.35,3.27-8.54,1.75-9.99-3.58-.66-2.42-.84-4.91-1.29-7.36-.25-1.35-.56-1.52-1.69-.7-2.73,1.99-4.68,4.57-5.83,7.75-.85,2.35-2.11,4.43-4.11,5.98-1.5,1.16-3.02,1.77-4.9.57-1.3-.83-1.88-.52-2.16,1.01-.79,4.3-2.15,8.44-3.58,12.55-1.09,3.14-2.82,6.01-4.12,9.07-2.09,4.94-4.5,9.73-7.22,14.34-2.3,3.89-4.98,7.56-7.41,11.37-4.25,6.66-9.9,12.05-15.53,17.47-1.96,1.89-4.28,3.31-6.7,4.53-2.85,1.43-6.51-.92-6.46-4.07.02-1.25.26-2.49.69-3.66,2.71-7.35,3.47-15.1,4.78-22.73.79-4.58,2.12-9.04,3.11-13.57,1.6-7.35,4.04-14.47,5.76-21.78.59-2.5,1.12-5.03,2.01-7.45.07-.19.12-.4.12-.61,0-.4.18-.94-.32-1.08-.43-.12-.6.38-.77.69-3.32,6.11-8.12,11.03-13.08,15.76-2.05,1.96-3.98,4.14-6.49,5.6-.5.29-1.02.56-1.54.81-4.61,2.25-8.08-.4-9.69-4.4-.62-1.53-.92-1.65-2.07-.36-3.83,4.32-7.65,8.65-11.37,13.06-5.42,6.43-11.53,12.17-18.18,17.36-6.36,4.97-12.84,9.75-19.58,14.19-.97.64-1.87,1.39-2.8,2.09-.3.23-.59.49-.62.9-.26,4.49-2.49,8.38-3.81,12.55-2.13,6.74-4.91,13.23-7.36,19.85-1.46,3.97-2.84,7.97-4.63,11.82-.77,1.65-1.44,3.36-1.63,5.21-.06.59-.31,1.12-.59,1.63-.84,1.5-1.52,3.04-1.52,4.82,0,.36-.15.74-.31,1.07-1.29,2.7-2.58,5.4-3.89,8.08-.96,1.96-2.38,3.15-4.74,2.85-.82-.1-1.61.13-2.43.36-2.52.71-4.75.44-6.27-2.24-2.4-4.22-3.4-8.73-3.95-13.49-.83-7.13-.05-14.09,1.7-20.96,1.52-5.99,4.62-11.12,8.95-15.58,7.08-7.3,15.14-13.32,23.69-18.76,1.75-1.11,3.38-2.42,5.03-3.68.74-.56,1.25-1.33,1.58-2.2,1.09-2.95,2-5.96,3.13-8.91,1.8-4.68,3.44-9.44,5.25-14.12,2.08-5.38,4.56-10.61,6.29-16.11,1.8-5.71,4.27-11.16,6.37-16.75,1.36-3.6,3.09-7.08,4.39-10.71,1.59-4.42,3.52-8.69,5.27-13.04.09-.23.17-.47.23-.71.36-1.44-.09-1.87-1.53-1.48-.8.22-1.59.54-2.41.63-2.92.31-4.85,2.06-6.68,4.16-6.52,7.49-13.11,14.91-19.69,22.35-.44.5-.92.97-1.44,1.37-1.07.8-1.71,1.85-2.2,3.09-2.77,7.01-7.57,12.34-13.89,16.33-7.81,4.94-16.24,8.52-25.03,11.36-4.39,1.41-8.62,3.34-13.13,4.37-5.92,1.35-11.82,2.77-17.63,4.52-3.7,1.11-7.38,2.33-11.18,3.04-2.13.4-4.22.92-6.33,1.38-1.18.25-1.91.88-2.3,2.02-1.5,4.36-2.93,8.73-4.57,13.04-1.49,3.92-3.11,7.79-4.85,11.6-2.47,5.44-5.06,10.84-7.19,16.42-2.94,7.69-6.09,15.26-9.99,22.52-1.69,3.14-3.1,6.44-5.19,9.36-.87,1.22-1.81,2.38-3.29,2.95-2,.77-3.66-.37-3.78-2.47-.12-1.96.66-3.65,1.28-5.4.39-1.09,1.14-.61,1.68-.17.91.75,1.4.4,1.77-.52,2.33-5.74,5.3-11.18,7.79-16.84,2.35-5.32,4.35-10.78,6.58-16.14,2.64-6.36,5.34-12.7,8.27-18.94,1.78-3.8,2.82-7.89,4.45-11.76.37-.88.75-1.76,1.04-2.67.28-.86-.02-1.34-.99-1.06-2.55.74-5.15.84-7.78.63-2.5-.2-4.99.15-7.45.52-1.82.27-3.65.26-5.47.38-7.81.5-15.64.25-23.46.32-2.33.02-2.32.01-3.1,2.14-.96,2.61-3.09,4.29-5.02,6.1-3.41,3.2-7.17,6.01-11.27,8.2-4.38,2.34-8.83,4.59-13.64,6.07-4.01,1.23-8.03,2.44-12.08,3.55-3.95,1.08-8,1.52-11.99.99-4.89-.65-7.58-3.53-6.1-8.82.82-2.95,2.37-5.56,3.78-8.24,4.39-8.4,10.95-14.77,18.74-19.95,3.46-2.3,7.27-4.03,11.1-5.67.11-.05.23-.11.35-.12.65-.07,1.52-.4,1.86.18.38.64-.51.99-.91,1.42-2.4,2.59-5.37,4.4-8.32,6.3-6.85,4.41-12.48,10.03-16.5,17.18-.89,1.59-1.9,3.11-2.5,4.86-.5,1.44-.74,2.88-.66,4.39.09,1.82.37,2.21,2.23,2.19,2.62-.03,5.23-.24,7.83-.54,5.63-.64,10.68-3.05,15.93-4.88,3.87-1.35,7.63-2.9,10.98-5.28,3.53-2.51,6.82-5.32,9.8-8.47.14-.15.27-.31.4-.48.89-1.17.81-1.47-.57-1.88-1.91-.56-3.9-.85-5.74-1.67-1.81-.8-2.13-1.31-2.01-3.23.06-.97.53-1.61,1.35-2.09,2.87-1.67,5.94-2.73,9.21-3.29,1.8-.31,1.89-.42,1.95-2.24.13-3.49.95-6.9,1.12-10.38.3-6.09.5-12.17-.55-18.23-.34-1.96-.22-3.98-.71-5.93-.31-1.24-.76-1.51-1.8-.78-3.64,2.57-7.58,4.65-11.26,7.15-1.86,1.26-3.91,2.22-5.77,3.47-2.42,1.62-7.6-.31-7.89-3.76-.22-2.61-.86-2.47-2.9-1.17-5.99,3.82-11.96,7.68-17.95,11.51-2.5,1.6-5.2,1.54-7.93.75-.98-.28-1.49-1.03-1.57-2.04-.1-1.38-.04-2.73.49-4.04,1.35-3.4,2.88-6.71,4.79-9.84.51-.83,1.39-1.78.74-2.7-.6-.86-1.71-.2-2.57-.03-1.63.33-3.23.78-4.85,1.14-.76.17-1.23.66-1.67,1.22-2.71,3.42-5.31,6.93-8.14,10.25-3.21,3.77-6.91,7.07-10.8,10.14-6.33,5.01-12.91,9.68-19.88,13.75-3.36,1.96-6.93,3.73-11.04,3.33-2.17-.21-4.34-.57-5.43-2.89-.5-1.07-.61-2.12-.16-3.25.71-1.8,1.85-3.34,2.91-4.92,2.96-4.37,5.95-8.72,8.92-13.07.85-1.24.69-1.76-.76-2.29-1.41-.51-2.82-1-3.93-2.09-.64-.63-1.34-.22-1.98.06-4.5,1.95-8.98,3.96-13.34,6.22-4.51,2.33-8.98,4.73-13.63,6.76-2.87,1.25-5.51,2.92-8.31,4.28-3.14,1.53-6.2,3.21-9.33,4.76-5.42,2.67-10.54,5.85-15.68,9-6.67,4.08-13.21,8.36-19.93,12.35-5.37,3.18-11.02,5.82-16.99,7.74-1.35.43-2.67.92-4.01,1.38-1.66.57-3.34.87-5.12.96-3.01.14-5.8-2.9-4.87-6.23,1.23-4.36,3.59-8.1,5.91-11.89,3.52-5.78,8.05-10.76,12.47-15.84,7.18-8.24,14.34-16.49,22.07-24.22,3.85-3.85,7.79-7.61,11.67-11.44.44-.43,1.34-.89.9-1.57-.51-.78-1.3-.08-1.88.21-1.66.86-3.25,1.85-4.87,2.78-2.79,1.6-5.75,2.81-8.58,4.29-2.86,1.5-5.87,2.52-8.96,3.41-1.3.37-2.61.48-3.95.41-1.98-.11-3.06-.97-3.51-2.91-.47-2.03-.27-4.04.32-6.02.3-1.03.75-2.04.68-3.15-.02-.29-.02-.63-.34-.74-.34-.12-.51.18-.71.39-8.41,9.08-18.09,16.64-28.23,23.65-6.15,4.26-12.41,8.36-18.61,12.55-3.66,2.47-6.92,5.46-10.4,8.15-2.14,1.66-4.44,3.07-6.75,4.48-.54.33-1.14.51-1.79.43-1.58-.19-2.27-1.73-1.33-2.98,1.83-2.42,4.34-4.1,6.66-5.98,9.39-7.67,19.64-14.11,29.75-20.75,8.61-5.66,16.55-12.15,23.7-19.57,3.34-3.47,6.55-7.08,10.38-10.05,1.05-.82,2.13-1.59,3.2-2.39.61-.46,1.31-.72,2.07-.81,1.6-.2,2.56.66,2.52,2.26-.06,2-.88,3.79-1.65,5.58-1.41,3.29-2.41,6.72-3.52,10.11-.6,1.83-.24,2.13,1.65,1.78,3.69-.68,7.02-2.3,10.35-3.91,7.1-3.42,13.5-8.03,20.31-11.95,1.8-1.04,3.61-2.06,5.43-3.06.62-.34,1.28-.6,2-.68,1.32-.15,2.08.48,2.13,1.81.08,2.04-.82,3.77-2.1,5.19-3.31,3.67-6.35,7.56-9.83,11.1-6.38,6.49-12.84,12.9-19,19.61-6.89,7.5-13.52,15.22-20.16,22.93-4.35,5.06-7.88,10.7-10.85,16.68-.25.5-.73,1.06-.31,1.62.44.59,1.19.38,1.75.23,3.7-.96,7.38-2.01,10.91-3.5,9.29-3.91,17.55-9.61,26.07-14.88,8.1-5.01,16.44-9.59,24.92-13.94,13.69-7.03,27.66-13.47,41.65-19.88,2.05-.94,3.93-2.12,5.65-3.61,2.83-2.45,6.32-3.63,9.82-4.7,1.29-.4,2.55-.31,3.46.96.5.69,1.09.51,1.74.09,1.64-1.06,2.64-.79,3.71.84.5.76.49,1.43.03,2.19-.78,1.29-1.73,2.44-2.77,3.52-6.33,6.58-12.01,13.66-16.88,21.39-1.04,1.65-2.29,3.17-3.33,4.81-.93,1.47-.65,1.87,1.08,1.86,1.45,0,2.76-.44,4.03-1.13,7.93-4.29,15.39-9.26,22.2-15.16,6.47-5.6,12.26-11.84,17.15-18.85,1.49-2.14,3.1-3.49,5.83-3.16.91.11,1.81-.16,2.69-.42,4.3-1.28,8.61-2.55,12.92-3.79,1.48-.42,2.7-.08,3.34.92.75,1.17.26,2.27-.44,3.23-1.22,1.68-2.84,3.03-4.07,4.72-.91,1.24-1.78,2.48-2.31,3.96-.33.93-.9,1.77-1.38,2.64-.4.73-.9,1.41-1.23,2.16-.34.79-.86,1.81-.24,2.46.56.59,1.34-.3,2-.55,4.39-1.68,8.12-4.51,12.07-6.93,4.75-2.9,9.46-5.9,13.72-9.52.95-.81,2.07-.79,3.2-.62.75.12,1.11.66,1.22,1.39.18,1.2-.35,2.18-.95,3.14-1.04,1.65-2.17,3.26-2.55,5.23-.1.51-.49,1.11.06,1.5.51.37,1.14.15,1.66-.14,1.89-1.05,3.78-2.1,5.64-3.2,2.23-1.3,4.4-2.69,6.64-3.96,2.42-1.37,4.48-3.15,6.37-5.15,1-1.06,2.18-1.08,3.44-.7.85.26,1.31.87,1.41,1.73.67,5.76,1.42,11.51,1.98,17.28.65,6.68.23,13.32-.77,19.96-.57,3.76-.89,7.57-1.4,11.35-.22,1.67-.08,1.72,1.56,1.88,6.69.66,13.4.47,20.07.08,8.16-.47,16.35-1.04,24.35-3.02,1.41-.35,2.19-1.07,2.67-2.43,3.19-8.91,6.37-17.82,9.77-26.65,2.49-6.46,4.95-12.95,7.32-19.45.49-1.35.1-1.83-1.33-1.47-2.46.62-4.9,1.31-7.32,2.05-1.14.35-2.28.38-3.45.39-1.09,0-1.67-.6-2.02-1.53-.36-.94-.24-1.79.52-2.5.65-.61,1.44-1.01,2.25-1.31,4.67-1.68,9.01-4.06,13.51-6.11,1.74-.79,2.66-2.06,3.5-3.78,1.11-2.26,1.63-4.77,3.01-6.9.18-.27.25-.61.34-.93,1.09-3.88,2.54-7.62,4.12-11.32.41-.95.82-1.92.93-2.96.15-1.42-.22-1.79-1.59-1.42-4.65,1.27-9.22,2.76-13.58,4.9-4.18,2.06-7.96,4.64-11.46,7.69-.75.65-1.59,1.2-2.45,1.7-.97.57-1.53.33-1.91-.74-.55-1.59-.4-3.07.93-4.21,5.03-4.34,10.42-8.04,16.72-10.44,4.79-1.82,9.6-3.52,14.51-4.95,1.09-.32,1.84-.94,2.1-2.06.4-1.71,1.23-3.15,2.51-4.35.24-.22.4-.59.79-.46.31.1.38.42.44.71.18.94.59,1.82.85,2.73.34,1.18,1.07,1.47,2.17,1.27,1.88-.33,3.78-.59,5.66-.9,4.11-.68,8.25-.9,12.4-1.07,2.48-.1,4.89.42,7.26,1.08,2.03.57,3.24,2.27,4.51,3.78.56.66.06,1.61-.25,2.38-1.09,2.69-2.63,5.12-4.65,7.18-3.92,3.98-8.32,7.37-13.17,10.19-4.06,2.36-8.01,4.9-12.02,7.35-1.2.74-2.43,1.45-3.63,2.18-.25.15-.54.33-.44.68.1.34.44.33.73.35.88.05,1.74-.1,2.6-.28,6.83-1.39,13.76-1.99,20.7-1.91,4.88.05,9.83-.25,14.67.9.77.18,1.51.33,2.15.89.74.64,1.67.4,2.52.28,1.33-.19,2.62-.64,3.74-1.34,2.66-1.64,5.61-2.33,8.62-2.71,4.04-.5,7.78-2.09,11.7-2.98,2.83-.64,5.58-1.68,8.45-2.17,2.31-.39,4.26-1.3,5.63-3.3,2.11-3.08,4.69-5.83,6.66-9.02.28-.45.8-.91.48-1.45-.36-.61-1.07-.37-1.6-.23-3.38.89-6.86,1.54-10.07,2.84-3.03,1.23-6.26,1.38-9.29,2.44-2.98,1.04-5.97,2.06-8.93,3.16-3.63,1.34-7.08,3.1-10.75,4.36-.83.28-1.63.64-2.26,1.29-.37.38-.65.37-.98-.11-1.49-2.17-1.09-4.36,1.17-5.65,2.65-1.5,5.51-2.56,8.37-3.57,2.9-1.02,5.77-2.15,8.65-3.22,4.21-1.56,8.63-2.48,12.89-3.88,5.58-1.84,11.28-3.19,16.95-4.68,1.72-.45,3-1.34,3.94-2.8,2.31-3.6,4.61-7.2,6.7-10.94,1.97-3.53,3.37-7.17,3.46-11.29.04-2.09,1.05-2.87,2.77-2.7,1.55.15,2.3.94,2.33,2.68.06,3.68-.51,7.27-1.66,10.77-.99,3.04-2.24,5.99-3.02,9.09-.38,1.51-.32,1.6,1.19,1.45,3.33-.33,6.52-1.28,9.75-2.05,5.02-1.2,10.01-2.48,15.02-3.72,3.67-.91,7.34-1.82,11.01-2.73,1.46-.36,2.91-.65,4.44-.36.88.16,1.59.35,1.83,1.37.24,1.06-.02,1.87-.92,2.49-1.86,1.29-3.99,1.85-6.17,2.21-5.14.85-10.14,2.24-15.1,3.82-2.47.78-5.08.86-7.58,1.48-4.92,1.22-9.85,2.39-14.78,3.59-1.36.33-2.38,1.15-3.09,2.35-1.74,2.96-2.68,6.25-3.94,9.41-.43,1.08.5,1.13,1.13.95,1.89-.52,3.86-.63,5.75-1.1,6.09-1.52,12.18-3.01,18.2-4.78,3.31-.97,6.62-1.97,9.94-2.89,2.12-.59,3.53.28,3.65,2.14.08,1.22-.85,2.44-2.3,2.91-4.32,1.39-8.66,2.67-13.03,3.88-8.1,2.25-16.34,3.9-24.46,6.05-1.81.48-2.93,1.42-3.61,3.06-1.41,3.46-2.91,6.88-4.21,10.38-1.61,4.32-3.08,8.7-5,12.88-2.64,5.75-4.57,11.75-6.84,17.63-1.36,3.52-2.96,6.95-4.35,10.46-2.54,6.4-4.99,12.84-7.5,19.26-.73,1.85-1.54,3.67-2.31,5.51-.27.65-.67,1.38.06,1.93.74.56,1.42.06,2.03-.4,4.57-3.47,9.14-6.93,13.7-10.42,2.04-1.56,4.2-3.02,6.05-4.79,2.54-2.44,4.92-5.07,7.23-7.74,4.15-4.76,8.4-9.44,12.29-14.41,2.55-3.26,5.24-6.47,5.91-10.79.2-1.3.77-2.54,1.72-3.54,1.4-1.48,3.54-1.52,4.98-.11.45.44.65.91.58,1.55-.25,2.27-.39,4.55-.71,6.81-.26,1.85-.08,3.65.29,5.44.37,1.81,1.23,2.19,2.86,1.25,1.63-.94,2.98-2.26,4.41-3.46,7.2-6.04,12.76-13.36,17.15-21.64,2.18-4.11,4.27-8.26,6.28-12.45,1.17-2.45,2.17-4.91,2.64-7.61.8-4.62,1.66-9.23,2.6-13.82,1.08-5.25,2.38-10.41,5.9-14.74,1.22-1.5,2.61-1.32,3.99-.8.32.12.59.39.61.74.09,1.43.4,2.89-.54,4.21-.84,1.18-1.32,2.52-1.18,3.98.6,6.12-1,11.77-3.64,17.19-1.93,3.97-2.74,8.23-3.58,12.51-1.77,9.08-3.67,18.15-6.73,26.91-1.27,3.63-2.07,7.32-2.83,11.07-.78,3.9-2.09,7.69-3,11.56-1.63,6.94-3.07,13.94-4.07,21-.57,4.03-1.14,8.05-2.07,12.01-.23.96-.6,1.89-1.01,3.17Zm-85.92-65.41c-.09-3.47-1.17-6.29-2.56-9.01-1.47-2.89-3.51-5.12-6.83-5.87-4.98-1.12-9.89-2.51-15.1-2.2-3.15.18-6.32.13-9.46.46-4.1.42-8.12,1.3-12.16,2.05-5.04.93-9.93,2.44-14.84,3.83-.87.25-1.55.72-1.91,1.63-1.66,4.17-3.41,8.3-5,12.48-2.71,7.13-5.36,14.29-7.98,21.46-1.63,4.44-3.19,8.91-4.74,13.37-.62,1.79-.26,2.15,1.65,1.87,5.44-.82,10.74-2.19,15.94-4,3.82-1.33,7.41-3.18,11.15-4.66,9.25-3.66,18.22-7.92,27.09-12.36,8.47-4.23,16.15-9.72,23.26-15.99,1.11-.98,1.78-1.93,1.5-3.05Zm-27.71,112.24c-.19,2.82.37,5.55,1.02,8.25.49,2.04,1.41,3.9,2.6,5.62.57.81,1.33,1.34,2.34.78,1.83-1,3.46-2.29,4.06-4.36.77-2.67,1.76-5.26,2.69-7.88,3.22-8.99,6.62-17.91,10.44-26.66,1.45-3.31,2.43-6.8,3.81-10.13,1.04-2.53,2.22-5.01,2.92-7.67.12-.46.47-.98-.09-1.36-.47-.31-.98-.11-1.41.15-.99.61-1.97,1.24-2.93,1.9-5.17,3.58-10.01,7.56-14.58,11.88-3.47,3.28-6.19,7.03-7.87,11.51-2.18,5.8-2.7,11.86-2.99,17.95Zm-1.76-161.61c-5.04-.04-9.69,1.17-14.42,1.85-1.25.18-2.43.55-3.6.99-.95.36-1.55.99-1.9,1.98-.59,1.68-1.06,3.4-1.74,5.06-2.14,5.22-4.16,10.49-5.87,15.87-.12.37-.23.74.08,1.05.33.33.7.15,1.04-.01.41-.2.82-.41,1.22-.62,2.91-1.5,5.87-2.87,8.74-4.49,3.98-2.25,7.77-4.79,11.69-7.12,3.65-2.17,6.63-5.25,9.42-8.46.51-.59.97-1.28,1.69-1.63.53-.25,1.27-.34.96-1.14-.35-.91-.11-2.37-1.37-2.56-2.04-.31-4.06-.99-5.95-.77Zm51.06,28.35c0-.52-.31-.67-.74-.63-.83.09-1.67.11-2.47.31-5.79,1.49-11.66,2.7-17.18,5.09-1.33.58-1.46.9-.64,2.11,1.8,2.65,3.46,5.37,4.29,8.52.43,1.61,1.18,1.83,2.51.82.3-.22.57-.49.83-.75,4.45-4.43,8.46-9.25,12.59-13.97.38-.44.68-.94.82-1.5Zm17.29-10.97c1.45-.44,3.22-.26,3.98-1.96,1.04-2.35,2.02-4.73,2.98-7.11.14-.36.53-.96-.05-1.2-.49-.2-.77.38-1.03.73-1.55,2.05-3.12,4.1-4.62,6.18-.61.84-1.09,1.76-1.6,2.67-.19.34-.32.76.35.7Z"/>
      <path class="cls-1" d="m301.84,90.45c-.43-2.51.66-5.06.78-7.69.18-4.1,1.36-8,2.03-12,.08-.48.33-1.09-.15-1.39-.4-.26-.86.18-1.24.41-1.98,1.22-3.95,2.46-5.93,3.69-2.26,1.41-4.68,2.35-7.37,2.41-1.8.04-3.68-.18-4.52-1.98-.92-1.96-.65-4.12.79-5.75,3.94-4.48,8.98-7.01,14.9-7.8.4-.05.9-.08,1.23.09,1.92,1.04,3.51.23,5.07-.82,1.3-.87,2.73-1.14,4.27-1.11.86.02,1.31.36,1.48,1.17.35,1.7.48,3.43-.2,5.03-1.79,4.21-2.46,8.67-3.32,13.11-.86,4.43-.84,8.91-1.23,13.36-.1,1.13.74,1.76,1.98,1.43.87-.24,1.69-.68,2.53-1.04,4.74-2.05,9.28-4.47,13.69-7.15.56-.34,1.18-.6,1.79-.87.29-.13.64-.36.93-.07.34.34.05.71-.11,1.02-.81,1.65-1.85,3.16-3.22,4.4-4.68,4.22-9.93,7.5-15.87,9.66-1.38.5-2.83.69-4.29.69-1.98.01-3.06-.9-3.55-2.82-.49-1.91-.67-3.84-.47-6Z"/>
      <path class="cls-1" d="m479.54,62.81c-1.18-.2-2.17-.66-2.94-1.56-.26-.31-.33-.68-.21-1.05.5-1.5,1.41-2.7,2.99-3.07,1.57-.36,2.96.14,4.04,1.38.41.47.58.98.24,1.59-.91,1.64-2.47,2.25-4.12,2.71Z"/>
      <path class="cls-1" d="m259.21,55.51c-.04,1.08-1.58,2.79-2.5,2.77-1.09-.02-2.39-1.56-2.37-2.79.02-1.26,1.29-2.43,2.56-2.36,1.1.06,2.36,1.35,2.32,2.38Z"/>
    </g>
  </g>
</svg>